<mxfile host="app.diagrams.net" agent="Mozilla/5.0 (Windows NT 10.0; Win64; x64) AppleWebKit/537.36 (KHTML, like Gecko) Chrome/128.0.0.0 Safari/537.36" version="24.7.13">
  <diagram name="Page-1" id="ic4HZwU6vkS78Y8gjpTu">
    <mxGraphModel dx="1834" dy="738" grid="1" gridSize="10" guides="1" tooltips="1" connect="1" arrows="1" fold="1" page="0" pageScale="1" pageWidth="850" pageHeight="1100" math="0" shadow="0">
      <root>
        <mxCell id="0" />
        <mxCell id="1" parent="0" />
        <mxCell id="bgaWBTSzJTdtPkFzlIp1-1" value="Users" style="rounded=0;whiteSpace=wrap;html=1;" vertex="1" parent="1">
          <mxGeometry x="-300" y="360" width="140" height="80" as="geometry" />
        </mxCell>
        <mxCell id="bgaWBTSzJTdtPkFzlIp1-2" value="Submit Registration Form" style="rounded=0;whiteSpace=wrap;html=1;" vertex="1" parent="1">
          <mxGeometry x="80" y="40" width="160" height="80" as="geometry" />
        </mxCell>
        <mxCell id="bgaWBTSzJTdtPkFzlIp1-3" value="Validate User Data" style="rounded=0;whiteSpace=wrap;html=1;" vertex="1" parent="1">
          <mxGeometry x="80" y="200" width="160" height="80" as="geometry" />
        </mxCell>
        <mxCell id="bgaWBTSzJTdtPkFzlIp1-4" value="Store data in User Database" style="rounded=0;whiteSpace=wrap;html=1;" vertex="1" parent="1">
          <mxGeometry x="80" y="360" width="160" height="80" as="geometry" />
        </mxCell>
        <mxCell id="bgaWBTSzJTdtPkFzlIp1-5" value="Send Confirmation Email" style="rounded=0;whiteSpace=wrap;html=1;" vertex="1" parent="1">
          <mxGeometry x="80" y="520" width="160" height="80" as="geometry" />
        </mxCell>
        <mxCell id="bgaWBTSzJTdtPkFzlIp1-6" value="User Database" style="rounded=0;whiteSpace=wrap;html=1;" vertex="1" parent="1">
          <mxGeometry x="520" y="360" width="160" height="80" as="geometry" />
        </mxCell>
        <mxCell id="bgaWBTSzJTdtPkFzlIp1-7" value="" style="endArrow=classic;html=1;rounded=0;entryX=0;entryY=1;entryDx=0;entryDy=0;exitX=1;exitY=0;exitDx=0;exitDy=0;" edge="1" parent="1" source="bgaWBTSzJTdtPkFzlIp1-1" target="bgaWBTSzJTdtPkFzlIp1-2">
          <mxGeometry width="50" height="50" relative="1" as="geometry">
            <mxPoint x="-160" y="320" as="sourcePoint" />
            <mxPoint x="-110" y="270" as="targetPoint" />
          </mxGeometry>
        </mxCell>
        <mxCell id="bgaWBTSzJTdtPkFzlIp1-8" value="Registration Info" style="edgeLabel;html=1;align=center;verticalAlign=middle;resizable=0;points=[];rotation=-45;" vertex="1" connectable="0" parent="bgaWBTSzJTdtPkFzlIp1-7">
          <mxGeometry x="0.0107" y="5" relative="1" as="geometry">
            <mxPoint x="-48" y="15" as="offset" />
          </mxGeometry>
        </mxCell>
        <mxCell id="bgaWBTSzJTdtPkFzlIp1-9" value="" style="endArrow=classic;html=1;rounded=0;entryX=0.5;entryY=0;entryDx=0;entryDy=0;" edge="1" parent="1" target="bgaWBTSzJTdtPkFzlIp1-3">
          <mxGeometry width="50" height="50" relative="1" as="geometry">
            <mxPoint x="160" y="120" as="sourcePoint" />
            <mxPoint x="210" y="70" as="targetPoint" />
          </mxGeometry>
        </mxCell>
        <mxCell id="bgaWBTSzJTdtPkFzlIp1-10" value="&lt;strong&gt;Registration Data&lt;/strong&gt;." style="edgeLabel;html=1;align=center;verticalAlign=middle;resizable=0;points=[];" vertex="1" connectable="0" parent="bgaWBTSzJTdtPkFzlIp1-9">
          <mxGeometry x="-0.0333" y="1" relative="1" as="geometry">
            <mxPoint x="49" as="offset" />
          </mxGeometry>
        </mxCell>
        <mxCell id="bgaWBTSzJTdtPkFzlIp1-11" value="" style="endArrow=classic;html=1;rounded=0;exitX=0.5;exitY=1;exitDx=0;exitDy=0;" edge="1" parent="1" source="bgaWBTSzJTdtPkFzlIp1-3" target="bgaWBTSzJTdtPkFzlIp1-4">
          <mxGeometry width="50" height="50" relative="1" as="geometry">
            <mxPoint x="160" y="320" as="sourcePoint" />
            <mxPoint x="210" y="270" as="targetPoint" />
          </mxGeometry>
        </mxCell>
        <mxCell id="bgaWBTSzJTdtPkFzlIp1-12" value="&lt;strong&gt;Validated User Info&lt;/strong&gt;." style="edgeLabel;html=1;align=center;verticalAlign=middle;resizable=0;points=[];" vertex="1" connectable="0" parent="bgaWBTSzJTdtPkFzlIp1-11">
          <mxGeometry x="-0.1" y="3" relative="1" as="geometry">
            <mxPoint x="57" y="6" as="offset" />
          </mxGeometry>
        </mxCell>
        <mxCell id="bgaWBTSzJTdtPkFzlIp1-13" value="" style="endArrow=classic;html=1;rounded=0;entryX=0.5;entryY=0;entryDx=0;entryDy=0;exitX=0.5;exitY=1;exitDx=0;exitDy=0;" edge="1" parent="1" source="bgaWBTSzJTdtPkFzlIp1-4" target="bgaWBTSzJTdtPkFzlIp1-5">
          <mxGeometry width="50" height="50" relative="1" as="geometry">
            <mxPoint x="160" y="480" as="sourcePoint" />
            <mxPoint x="210" y="470" as="targetPoint" />
          </mxGeometry>
        </mxCell>
        <mxCell id="bgaWBTSzJTdtPkFzlIp1-14" value="&lt;strong&gt;Email and User Details&lt;/strong&gt;." style="edgeLabel;html=1;align=center;verticalAlign=middle;resizable=0;points=[];" vertex="1" connectable="0" parent="bgaWBTSzJTdtPkFzlIp1-13">
          <mxGeometry x="0.05" relative="1" as="geometry">
            <mxPoint x="70" as="offset" />
          </mxGeometry>
        </mxCell>
        <mxCell id="bgaWBTSzJTdtPkFzlIp1-15" value="Email Service" style="rounded=0;whiteSpace=wrap;html=1;" vertex="1" parent="1">
          <mxGeometry x="80" y="680" width="160" height="80" as="geometry" />
        </mxCell>
        <mxCell id="bgaWBTSzJTdtPkFzlIp1-16" value="" style="endArrow=classic;html=1;rounded=0;entryX=0.5;entryY=0;entryDx=0;entryDy=0;exitX=0.5;exitY=1;exitDx=0;exitDy=0;" edge="1" parent="1" source="bgaWBTSzJTdtPkFzlIp1-5" target="bgaWBTSzJTdtPkFzlIp1-15">
          <mxGeometry width="50" height="50" relative="1" as="geometry">
            <mxPoint x="240" y="640" as="sourcePoint" />
            <mxPoint x="290" y="590" as="targetPoint" />
          </mxGeometry>
        </mxCell>
        <mxCell id="bgaWBTSzJTdtPkFzlIp1-17" value="&lt;strong&gt;Confirmation Request&lt;/strong&gt;." style="edgeLabel;html=1;align=center;verticalAlign=middle;resizable=0;points=[];" vertex="1" connectable="0" parent="bgaWBTSzJTdtPkFzlIp1-16">
          <mxGeometry x="-0.0125" relative="1" as="geometry">
            <mxPoint x="70" as="offset" />
          </mxGeometry>
        </mxCell>
        <mxCell id="bgaWBTSzJTdtPkFzlIp1-18" value="" style="endArrow=classic;html=1;rounded=0;entryX=1;entryY=1;entryDx=0;entryDy=0;" edge="1" parent="1" target="bgaWBTSzJTdtPkFzlIp1-1">
          <mxGeometry width="50" height="50" relative="1" as="geometry">
            <mxPoint x="80" y="680" as="sourcePoint" />
            <mxPoint x="130" y="630" as="targetPoint" />
          </mxGeometry>
        </mxCell>
        <mxCell id="bgaWBTSzJTdtPkFzlIp1-21" value="&lt;strong&gt;Confirmation Email&lt;/strong&gt;." style="edgeLabel;html=1;align=center;verticalAlign=middle;resizable=0;points=[];rotation=45;" vertex="1" connectable="0" parent="bgaWBTSzJTdtPkFzlIp1-18">
          <mxGeometry x="-0.1958" y="4" relative="1" as="geometry">
            <mxPoint x="-31" y="13" as="offset" />
          </mxGeometry>
        </mxCell>
        <mxCell id="bgaWBTSzJTdtPkFzlIp1-19" value="" style="endArrow=classic;html=1;rounded=0;exitX=1;exitY=0.5;exitDx=0;exitDy=0;entryX=0;entryY=0.5;entryDx=0;entryDy=0;" edge="1" parent="1" source="bgaWBTSzJTdtPkFzlIp1-4" target="bgaWBTSzJTdtPkFzlIp1-6">
          <mxGeometry width="50" height="50" relative="1" as="geometry">
            <mxPoint x="400" y="440" as="sourcePoint" />
            <mxPoint x="510" y="400" as="targetPoint" />
          </mxGeometry>
        </mxCell>
        <mxCell id="bgaWBTSzJTdtPkFzlIp1-20" value="Stored User Data" style="edgeLabel;html=1;align=center;verticalAlign=middle;resizable=0;points=[];" vertex="1" connectable="0" parent="bgaWBTSzJTdtPkFzlIp1-19">
          <mxGeometry x="0.05" y="-1" relative="1" as="geometry">
            <mxPoint x="3" y="-11" as="offset" />
          </mxGeometry>
        </mxCell>
      </root>
    </mxGraphModel>
  </diagram>
</mxfile>
